#!OML:ASF H:\Terrain\Patient Classification 1\Walking\liu\liu.ASF
:FULLY-SPECIFIED
:DEGREES
284
root 9.15502 16.6987 22.2491 8.45049 4.87703 -1.38989
lowerback -4.16717 -4.23252 -2.97122
upperback -0.408925 -5.58552 3.23059
thorax 2.51739 -2.84369 4.62474
lowerneck -19.7402 -2.77038 -12.0655
upperneck 18.6447 -3.43175 14.0407
head 9.61048 -0.91467 6.53185
rclavicle 5.46658e-015 -3.22031e-014
rhumerus -47.3435 6.71692 -81.1972
rradius 32.0637
rwrist -21.3416
rhand -29.7539 -27.5532
rfingers 7.12502
rthumb -3.07979 -57.5108
lclavicle 5.46658e-015 -3.22031e-014
lhumerus -20.7065 -20.321 88.8006
lradius 30.9923
lwrist 6.02876
lhand -12.6507 -25.7404
lfingers 7.12502
lthumb 13.4299 3.80666
rfemur -36.0298 2.69034 25.8704
rtibia 43.5771
rfoot -15.5114 -1.92982
rtoes -16.7607
lfemur -8.72104 7.10969 -14.2115
ltibia 64.8947
lfoot -0.767613 12.9168
ltoes -2.03128
285
root 9.15048 16.7502 22.434 8.52005 4.51923 -1.30203
lowerback -4.21159 -3.99801 -3.05504
upperback -0.46074 -5.26314 3.09217
thorax 2.44886 -2.67982 4.553
lowerneck -23.4071 -3.5043 -9.86204
upperneck 21.8976 -4.47525 11.4425
head 11.5163 -1.40872 5.18057
rclavicle 4.48259e-014 -2.5842e-014
rhumerus -46.9014 7.43464 -82.2185
rradius 32.838
rwrist -21.8875
rhand -29.2098 -26.559
rfingers 7.12502
rthumb -2.55431 -56.5235
lclavicle 4.48259e-014 -2.5842e-014
lhumerus -21.5822 -19.8618 89.187
lradius 30.6294
lwrist 6.08849
lhand -12.286 -25.474
lfingers 7.12502
lthumb 13.7814 4.04951
rfemur -34.9454 2.80807 25.8658
rtibia 42.8471
rfoot -16.0309 -1.70021
rtoes -17.8491
lfemur -10.8021 7.02997 -14.7742
ltibia 66.2935
lfoot -2.19931 13.3271
ltoes -1.97375
286
root 9.13942 16.7951 22.6169 8.60218 3.78916 -1.30699
lowerback -4.35002 -3.7145 -3.24295
upperback -0.505014 -4.87108 3.03661
thorax 2.45032 -2.48446 4.62455
lowerneck -23.3974 -3.40855 -9.48253
upperneck 22.2283 -4.40545 11.0759
head 11.6106 -1.38999 4.99804
rclavicle -3.34952e-014 1.43125e-014
rhumerus -46.4648 8.08649 -83.0214
rradius 33.6918
rwrist -21.8129
rhand -30.3083 -27.3895
rfingers 7.12502
rthumb -3.61517 -57.3386
lclavicle -3.34952e-014 1.43125e-014
lhumerus -22.5759 -18.8868 89.5284
lradius 30.2509
lwrist 5.82228
lhand -12.2018 -25.3426
lfingers 7.12502
lthumb 13.8625 4.17541
rfemur -33.9287 3.32929 25.9748
rtibia 42.1065
rfoot -16.3011 -1.59402
rtoes -17.9609
lfemur -12.8247 7.44678 -15.1388
ltibia 67.412
lfoot -3.38933 13.1794
ltoes -3.36479
287
root 9.1755 16.8525 22.7882 8.16123 3.69735 -1.30449
lowerback -3.40061 -3.52859 -2.77002
upperback -1.00807 -4.65144 2.9072
thorax 1.32809 -2.34082 4.32134
lowerneck -22.382 -3.38841 -9.53226
upperneck 22.507 -4.42335 10.9027
head 11.5182 -1.45133 4.94012
rclavicle 3.35201e-014 -2.26615e-014
rhumerus -46.9416 8.8961 -83.6602
rradius 34.2471
rwrist -21.7879
rhand -30.0098 -26.8075
rfingers 7.12502
rthumb -3.32688 -56.7613
lclavicle 3.35201e-014 -2.26615e-014
lhumerus -24.6987 -17.8979 90.3526
lradius 30.0059
lwrist 5.33685
lhand -12.3448 -25.2052
lfingers 7.12502
lthumb 13.7247 4.32223
rfemur -32.1836 2.2669 26.1151
rtibia 41.3772
rfoot -16.6841 -0.579185
rtoes -17.8655
lfemur -14.0509 7.33417 -15.6352
ltibia 68.1421
lfoot -4.87342 13.3932
ltoes -8.43822
288
root 9.18594 16.8983 22.978 7.81097 3.40686 -1.44366
lowerback -2.80135 -3.36963 -2.66309
upperback -0.800486 -4.45487 2.97012
thorax 1.1847 -2.2434 4.36769
lowerneck -18.9295 -2.60664 -12.3572
upperneck 18.8564 -3.37335 14.6928
head 9.54143 -0.866071 6.83553
rclavicle 3.50109e-014 -7.95139e-016
rhumerus -45.6951 10.2641 -84.3917
rradius 34.2706
rwrist -22.361
rhand -29.9173 -25.2712
rfingers 7.12502
rthumb -3.23756 -55.2263
lclavicle 3.50109e-014 -7.95139e-016
lhumerus -25.2185 -17.1028 90.6291
lradius 29.6728
lwrist 5.2397
lhand -12.6824 -25.2022
lfingers 7.12502
lthumb 13.3994 4.34693
rfemur -30.6209 1.81784 26.4156
rtibia 40.6735
rfoot -16.7618 -0.0527552
rtoes -18.0117
lfemur -15.3491 7.51518 -15.7975
ltibia 68.6907
lfoot -6.82318 13.582
ltoes -14.1622
289
root 9.18718 16.9395 23.1651 7.70902 3.00372 -1.28157
lowerback -3.35799 -2.82286 -2.65035
upperback -0.930882 -3.71352 2.87884
thorax 1.28311 -1.87069 4.27871
lowerneck -17.9909 -3.21844 -12.7562
upperneck 19.3067 -4.1493 14.1804
head 9.64064 -1.34319 6.6174
rclavicle 3.0911e-014 -5.96354e-015
rhumerus -45.7639 10.4216 -84.6273
rradius 34.8113
rwrist -23.0747
rhand -30.9148 -24.1731
rfingers 7.12502
rthumb -4.2009 -54.1114
lclavicle 3.0911e-014 -5.96354e-015
lhumerus -26.7535 -17.3978 91.8122
lradius 29.4457
lwrist 5.26352
lhand -12.6789 -25.2137
lfingers 7.12502
lthumb 13.4027 4.33516
rfemur -29.3992 1.67353 26.3347
rtibia 39.9849
rfoot -16.6184 0.301301
rtoes -18.014
lfemur -17.0308 7.45443 -16.4042
ltibia 69.0944
lfoot -7.85169 13.8163
ltoes -14.697
